<?xml version="1.0" standalone="no"?>
<!DOCTYPE svg PUBLIC "-//W3C//DTD SVG 20010904//EN"
 "http://www.w3.org/TR/2001/REC-SVG-20010904/DTD/svg10.dtd">
<svg version="1.0" xmlns="http://www.w3.org/2000/svg"
 width="239.000000pt" height="233.000000pt" viewBox="0 0 239.000000 233.000000"
 preserveAspectRatio="xMidYMid meet">

<g transform="translate(0.000000,233.000000) scale(0.100000,-0.100000)"
fill="#000000" stroke="none">
<path d="M868 2030 c-96 -17 -202 -55 -257 -90 -106 -69 -166 -178 -226 -410
-57 -225 -91 -338 -144 -477 -103 -269 -98 -369 23 -450 84 -57 157 -71 489
-93 186 -13 261 -26 497 -87 160 -42 186 -46 300 -47 199 -2 290 39 356 158
52 94 112 385 159 765 45 365 32 485 -60 577 -77 78 -173 103 -525 139 -181
19 -544 28 -612 15z"/>
</g>
</svg>
