<?xml version="1.0" standalone="no"?>
<!DOCTYPE svg PUBLIC "-//W3C//DTD SVG 20010904//EN"
 "http://www.w3.org/TR/2001/REC-SVG-20010904/DTD/svg10.dtd">
<svg version="1.0" xmlns="http://www.w3.org/2000/svg"
 width="3345.000000pt" height="654.000000pt" viewBox="0 0 3345.000000 654.000000"
 preserveAspectRatio="xMidYMid meet">

<g transform="translate(0.000000,654.000000) scale(0.100000,-0.100000)"
fill="#000000" stroke="none">
<path d="M3065 6530 c-692 -58 -1286 -282 -1591 -601 -127 -133 -259 -335
-344 -527 -99 -221 -165 -437 -325 -1062 -179 -701 -289 -1056 -498 -1610
-238 -630 -318 -952 -304 -1225 16 -299 151 -489 463 -647 351 -179 615 -225
1624 -283 864 -50 1178 -102 2024 -331 894 -243 1332 -293 1781 -203 290 58
524 177 705 359 186 185 292 391 380 735 68 267 260 1286 320 1695 34 236 151
1223 175 1475 23 235 31 679 16 831 -35 344 -120 567 -285 741 -224 237 -572
366 -1236 457 -599 83 -1237 143 -1950 186 -247 15 -824 20 -955 10z"/>
<path d="M28072 5175 c-112 -25 -200 -95 -246 -194 -32 -70 -30 -197 5 -271
34 -72 88 -126 163 -161 69 -33 156 -38 273 -18 157 27 266 173 249 332 -22
216 -228 360 -444 312z"/>
<path d="M18910 5083 c-323 -34 -640 -182 -855 -398 -252 -252 -381 -583 -417
-1072 -34 -465 78 -971 276 -1247 206 -287 446 -454 771 -536 326 -83 654 -77
932 15 329 110 610 357 748 660 38 83 115 302 115 327 0 23 -67 28 -368 28
l-263 0 -11 -32 c-24 -68 -89 -185 -130 -235 -64 -76 -132 -129 -233 -179
-136 -66 -194 -79 -370 -79 -177 0 -234 12 -373 81 -159 78 -282 214 -352 387
-67 167 -99 339 -107 567 -15 440 86 790 280 967 256 233 669 270 977 89 132
-78 231 -192 289 -335 18 -43 36 -70 52 -78 17 -9 97 -13 284 -12 296 0 328 6
333 54 3 34 -55 210 -98 295 -232 459 -737 745 -1305 738 -77 -1 -156 -3 -175
-5z"/>
<path d="M25535 5071 c-50 -13 -75 -34 -101 -87 -61 -125 -74 -401 -73 -1609
0 -892 9 -1350 29 -1442 21 -98 21 -98 231 -101 209 -4 237 -1 279 34 62 52
62 61 71 774 8 701 10 729 66 831 30 56 116 140 172 168 85 43 144 56 251 55
132 0 197 -23 267 -92 55 -55 87 -122 104 -212 7 -42 14 -300 19 -725 8 -730
8 -736 70 -789 41 -34 70 -38 257 -34 181 3 201 10 236 79 32 65 37 183 38
799 0 739 -10 879 -78 1048 -92 230 -260 379 -502 444 -107 29 -295 28 -406
-1 -158 -42 -294 -123 -415 -245 -54 -55 -66 -63 -72 -49 -3 10 -7 271 -7 580
-1 438 -4 564 -13 570 -17 10 -384 14 -423 4z"/>
<path d="M8750 5041 l-25 -7 -8 -1054 c-9 -1175 1 -1976 26 -2068 8 -29 20
-59 26 -65 19 -19 1798 -14 1837 4 52 25 64 67 64 224 0 152 -8 196 -42 232
-46 49 -90 54 -558 64 -466 9 -559 17 -630 52 -60 30 -79 66 -92 179 -12 106
-4 393 12 450 14 47 60 94 108 108 66 19 261 30 562 30 387 0 460 13 494 85
21 43 24 419 4 432 -7 4 -240 10 -518 13 l-505 5 -50 25 c-60 30 -91 73 -99
138 -4 26 -7 137 -9 247 -2 225 4 256 58 304 71 62 162 72 720 77 286 3 481 9
497 16 16 6 31 22 37 40 13 38 14 288 1 343 -13 56 -54 89 -136 111 -63 16
-141 18 -909 20 -462 1 -851 -1 -865 -5z"/>
<path d="M12076 4225 c-145 -37 -279 -135 -345 -254 -19 -33 -38 -61 -43 -61
-11 0 -16 31 -23 145 -4 55 -11 105 -16 110 -6 6 -92 10 -217 10 -190 0 -210
-2 -242 -20 -75 -45 -96 -131 -110 -445 -10 -245 -12 -1522 -1 -1740 l6 -135
247 -3 c288 -3 309 1 328 65 13 42 17 185 30 943 5 330 12 528 19 552 18 57
92 150 150 187 85 55 160 74 286 74 91 0 123 -4 187 -25 62 -21 80 -23 88 -13
23 28 108 540 94 563 -30 47 -316 78 -438 47z"/>
<path d="M13361 4225 c-424 -93 -679 -368 -783 -849 -30 -138 -33 -464 -5
-601 62 -303 203 -561 387 -708 88 -70 225 -138 340 -169 113 -30 377 -33 480
-5 164 45 294 118 375 210 25 28 45 55 45 59 0 5 7 8 15 8 53 0 4 -384 -68
-526 -51 -101 -176 -190 -317 -225 -78 -20 -259 -17 -340 5 -104 28 -197 83
-270 158 -57 58 -73 69 -120 80 -72 17 -454 18 -470 2 -15 -15 8 -131 44 -226
69 -186 233 -348 435 -432 255 -107 571 -131 892 -66 249 51 415 135 555 283
116 121 186 257 241 467 l26 95 4 815 c7 1101 -7 1408 -66 1503 -37 59 -46 62
-275 65 -123 2 -212 0 -218 -6 -5 -5 -14 -74 -19 -153 -5 -78 -11 -144 -13
-146 -2 -2 -24 24 -49 59 -114 158 -275 262 -469 302 -94 19 -269 20 -357 1z
m445 -516 c118 -23 231 -101 304 -212 185 -283 164 -739 -45 -965 -94 -102
-207 -145 -375 -144 -251 0 -417 139 -493 411 -17 65 -21 104 -21 261 0 158 4
196 22 262 86 311 298 446 608 387z"/>
<path d="M16187 4229 c-509 -44 -871 -307 -1011 -734 -143 -440 -76 -972 165
-1297 197 -266 552 -428 935 -428 474 0 901 304 1053 749 194 566 52 1153
-359 1483 -216 174 -487 253 -783 227z m153 -509 c208 -33 366 -203 432 -465
19 -77 22 -115 22 -260 -1 -200 -16 -274 -89 -421 -132 -268 -402 -370 -655
-247 -149 73 -255 213 -307 411 -22 84 -26 119 -27 257 -1 193 13 262 85 412
62 130 144 218 252 269 109 51 174 61 287 44z"/>
<path d="M29820 4234 c-14 -2 -59 -9 -100 -15 -392 -57 -738 -334 -870 -697
-241 -662 -7 -1362 545 -1633 181 -89 421 -130 628 -109 281 28 506 132 696
320 138 136 230 284 292 467 53 158 64 231 64 438 -1 207 -10 275 -67 460
-121 399 -417 662 -843 750 -75 15 -296 28 -345 19z m213 -519 c152 -32 268
-130 343 -290 23 -49 49 -119 58 -155 92 -378 -31 -800 -271 -928 -107 -56
-243 -76 -352 -51 -283 65 -475 427 -432 812 26 235 75 362 180 466 74 75 165
124 264 146 81 18 128 18 210 0z"/>
<path d="M32445 4226 c-188 -44 -328 -139 -426 -292 -23 -35 -44 -62 -47 -59
-3 3 -8 61 -12 131 -8 140 -12 150 -76 164 -49 12 -215 12 -312 1 -110 -13
-146 -56 -173 -211 -20 -109 -20 -1766 -1 -1890 32 -203 81 -237 327 -228 146
6 185 19 214 76 37 73 42 152 51 777 11 753 11 756 137 876 103 98 205 135
349 126 182 -11 310 -120 344 -292 8 -41 14 -299 18 -801 6 -637 9 -743 22
-759 14 -17 32 -18 294 -11 154 3 282 9 285 12 10 10 4 1280 -8 1514 -8 169
-16 243 -31 298 -73 262 -287 468 -575 553 -92 27 -294 35 -380 15z"/>
<path d="M23842 4215 c-227 -40 -430 -149 -540 -290 -98 -124 -137 -252 -129
-415 10 -179 58 -305 160 -416 141 -154 318 -233 727 -325 269 -60 372 -101
423 -170 25 -34 33 -106 17 -154 -15 -47 -72 -111 -120 -135 -143 -73 -387
-68 -542 11 -66 33 -133 104 -166 173 -26 54 -35 64 -62 70 -49 9 -399 7 -444
-4 -69 -15 -73 -27 -47 -122 72 -265 212 -445 425 -548 284 -138 698 -158
1013 -51 200 68 373 211 451 371 61 124 76 192 76 340 1 146 -11 204 -66 318
-65 138 -188 245 -369 323 -107 46 -224 79 -448 124 -236 47 -321 76 -376 129
-76 72 -74 161 4 237 59 57 130 79 253 79 149 0 286 -58 355 -151 55 -73 98
-84 323 -84 215 1 250 11 250 72 0 54 -24 136 -61 213 -41 83 -176 220 -275
278 -82 49 -199 93 -305 117 -106 23 -417 29 -527 10z"/>
<path d="M20871 4170 c-58 -12 -98 -51 -117 -115 -28 -94 -36 -394 -26 -1010
l9 -580 36 -106 c42 -126 74 -192 133 -275 132 -187 338 -289 609 -301 269
-12 495 84 641 271 31 39 60 73 65 74 5 2 9 -53 9 -125 0 -93 4 -134 14 -148
11 -16 36 -20 189 -28 250 -14 293 -3 336 81 52 105 61 250 61 1077 0 1000
-11 1105 -121 1170 -31 18 -52 20 -214 20 -213 0 -224 -4 -251 -87 -15 -47
-18 -132 -24 -733 -6 -672 -6 -681 -28 -736 -49 -124 -156 -231 -279 -280 -48
-19 -77 -23 -168 -24 -103 0 -114 2 -175 31 -115 55 -196 165 -221 299 -6 38
-12 323 -16 777 -4 569 -8 721 -18 735 -12 16 -34 18 -207 20 -106 1 -213 -2
-237 -7z"/>
<path d="M27996 4160 c-71 -22 -107 -103 -126 -285 -17 -156 -25 -1362 -11
-1605 17 -305 36 -371 115 -409 36 -18 61 -21 181 -21 170 0 211 14 246 86 44
93 50 178 56 844 5 620 -5 1065 -27 1200 -13 79 -45 147 -83 174 -25 19 -45
21 -175 23 -81 1 -160 -2 -176 -7z"/>
</g>
</svg>
